# Blender 3.6.4 Release Candidate
# www.blender.org
mtllib BANDERA.mtl
o BANDERA
v -0.028734 0.000000 0.028734
v -0.028734 2.045001 0.028734
v -0.028734 0.000000 -0.028734
v -0.028734 2.045001 -0.028734
v 0.028734 0.000000 0.028734
v 0.028734 2.045001 0.028734
v 0.028734 0.000000 -0.028734
v 0.028734 2.045001 -0.028734
v 0.009578 0.000000 -0.028734
v -0.009578 0.000000 -0.028734
v -0.009578 2.045001 -0.028734
v 0.009578 2.045001 -0.028734
v -0.009578 0.000000 0.028734
v 0.009578 0.000000 0.028734
v 0.009578 2.045001 0.028734
v -0.009578 2.045001 0.028734
v -0.028734 1.126993 0.028734
v -0.028734 1.126993 -0.028734
v 0.028734 1.126993 -0.028734
v 0.028734 1.126993 0.028734
v 0.009578 1.126993 0.028734
v -0.009578 1.126993 0.028734
v -0.009578 1.126993 -0.028734
v 0.009578 1.126993 -0.028734
v 0.015000 2.045001 1.373365
v -0.015000 2.045001 1.373365
v 0.015000 1.126993 1.373365
v -0.015000 1.126993 1.373365
vn -1.0000 -0.0000 -0.0000
vn -0.0000 -0.0000 -1.0000
vn 1.0000 -0.0000 -0.0000
vn -0.0000 -0.0000 1.0000
vn -0.0000 -1.0000 -0.0000
vn -0.0000 1.0000 -0.0000
vn 1.0000 -0.0000 -0.0040
vn -1.0000 -0.0000 -0.0040
vt 0.448409 0.952954
vt 0.047046 0.952954
vt 0.047046 0.913604
vt 0.448409 0.913604
vt 0.448409 0.887371
vt 0.047046 0.887371
vt 0.047046 0.874254
vt 0.448409 0.874254
vt 0.047046 0.834904
vt 0.448409 0.834904
vt 0.448409 0.966071
vt 0.047046 0.966071
vt 0.980492 0.979188
vt 0.980492 0.992304
vt 0.941142 0.992304
vt 0.941142 0.979188
vt 0.007696 0.966071
vt 0.007696 0.952954
vt 0.007696 0.992304
vt 0.007696 0.979188
vt 0.047046 0.979188
vt 0.047046 0.992304
vt 0.980492 0.952954
vt 0.980492 0.966071
vt 0.941142 0.966071
vt 0.941142 0.952954
vt 0.047046 0.821787
vt 0.448409 0.821787
vt 0.957787 0.794442
vt 0.957754 0.802333
vt 0.403872 0.802333
vt 0.403896 0.789900
vt 0.047046 0.900487
vt 0.448409 0.900487
vt 0.941142 0.900487
vt 0.941142 0.887371
vt 0.941142 0.913604
vt 0.448409 0.979188
vt 0.941142 0.834904
vt 0.941142 0.821787
vt 0.941142 0.874254
vt 0.021093 0.802333
vt 0.021093 0.789824
vt 0.957754 0.014982
vt 0.957754 0.397761
vt 0.403872 0.397761
vt 0.403871 0.014983
vt 0.957786 0.409558
vt 0.403921 0.414025
vt 0.957754 0.397761
vt 0.957754 0.014983
vt 0.403872 0.014982
vt 0.403872 0.397761
s 0
usemtl Material.001
f 17/1/1 2/2/1 4/3/1 18/4/1
f 24/5/2 12/6/2 8/7/2 19/8/2
f 19/8/3 8/7/3 6/9/3 20/10/3
f 22/11/4 16/12/4 2/2/4 17/1/4
f 9/13/5 7/14/5 5/15/5 14/16/5
f 11/17/6 4/18/6 2/2/6 16/12/6
f 8/19/6 12/20/6 15/21/6 6/22/6
f 12/20/6 11/17/6 16/12/6 15/21/6
f 3/23/5 10/24/5 13/25/5 1/26/5
f 10/24/5 9/13/5 14/16/5 13/25/5
f 20/10/4 6/9/4 15/27/4 21/28/4
f 22/29/5 21/30/5 27/31/5 28/32/5
f 18/4/2 4/3/2 11/33/2 23/34/2
f 23/34/2 11/33/2 12/6/2 24/5/2
f 10/35/2 23/34/2 24/5/2 9/36/2
f 3/37/2 18/4/2 23/34/2 10/35/2
f 14/16/4 21/38/4 22/11/4 13/25/4
f 5/39/4 20/10/4 21/28/4 14/40/4
f 13/25/4 22/11/4 17/1/4 1/26/4
f 7/41/3 19/8/3 20/10/3 5/39/3
f 9/36/2 24/5/2 19/8/2 7/41/2
f 1/26/1 17/1/1 18/4/1 3/37/1
f 27/31/4 25/42/4 26/43/4 28/32/4
f 21/44/7 15/45/7 25/46/7 27/47/7
f 15/45/6 16/48/6 26/49/6 25/46/6
f 16/50/8 22/51/8 28/52/8 26/53/8
